<svg
     width="64" height="64"
     viewBox="0 0 64 64">
  <path id="Vest"
        fill="none" stroke="black" stroke-width="4"
        d="M 18.12,16.00
           C 16.02,23.86 17.78,28.17 8.00,28.13
             8.00,32.31 8.00,40.00 8.00,48.00
             8.00,56.00 8.00,56.00 16.00,56.00
             21.06,56.00 46.44,56.00 48.00,56.00
             56.00,56.00 56.00,56.00 56.00,48.00
             56.00,40.00 56.00,31.48 56.00,27.94
             46.17,27.91 48.04,23.82 45.94,16.00
             45.01,7.82 45.65,8.00 40.00,8.00
             37.50,8.00 24.00,8.00 24.00,8.00
             19.13,8.00 19.04,7.86 18.12,16.00 Z" />
</svg>
